<?xml version="1.0" encoding="iso-8859-1"?>
<!-- Generator: Adobe Illustrator 19.0.0, SVG Export Plug-In . SVG Version: 6.00 Build 0)  -->
<svg xmlns="http://www.w3.org/2000/svg" xmlns:xlink="http://www.w3.org/1999/xlink" version="1.1" id="Layer_1" x="0px" y="0px" viewBox="0 0 512.667 512.667" style="enable-background:new 0 0 512.667 512.667;" xml:space="preserve">
<g>
	<g>
		<path d="M512.388,256.581c-33.572-85.124-112.816-143.888-202.068-149.956l-94.036-57.648c-0.164-0.1-0.336-0.192-0.516-0.268    c-3.496-1.496-7.044-2.252-10.548-2.252c-14.016,0-24.588,12.092-24.588,28.128c0,11.328,5.684,29.132,16.9,52.956    c-41.88,19.536-77.992,52.02-102.376,92.088l-68.452-41.968c-0.164-0.1-0.336-0.192-0.516-0.268    c-2.588-1.104-5.224-1.668-7.828-1.668C7.892,175.725,0,184.678,0,196.55c0,17.488,19.328,52.612,24.388,61.5    C19.328,266.933,0,302.057,0,319.549c0,11.872,7.896,20.824,18.36,20.824c2.604,0,5.236-0.56,7.828-1.668    c0.18-0.076,0.352-0.168,0.516-0.268l68.448-41.972c24.4,40.164,59.212,71.672,101.068,91.472    c-10.34,22.416-15.584,39.276-15.584,50.144c0,16.036,10.568,28.128,24.592,28.128c3.5,0,7.044-0.76,10.544-2.256    c0.18-0.076,0.352-0.168,0.516-0.268l87.836-53.844c92.032-3.776,173.7-62.684,208.264-150.328    C512.76,258.573,512.76,257.521,512.388,256.581z M302.772,401.881c-0.688,0.024-1.36,0.228-1.944,0.588l-88.468,54.236    c-2.408,0.996-4.808,1.5-7.136,1.5c0,0,0,0-0.004,0c-9.612-0.004-16.588-8.468-16.588-20.128c0-10.116,5.716-27.536,16.528-50.376    c0.456-0.968,0.508-2.08,0.136-3.088c-0.364-1.008-1.128-1.824-2.104-2.264c-43.2-19.536-78.896-51.844-103.224-93.428    c-0.544-0.928-1.436-1.6-2.48-1.86c-0.32-0.08-0.648-0.12-0.972-0.12c-0.732,0-1.456,0.204-2.092,0.592l-71.64,43.928    c-1.5,0.608-2.988,0.916-4.424,0.916c-6.004,0-10.36-5.396-10.36-12.824c0-14.552,17.652-47.868,24.452-59.48    c0.732-1.248,0.732-2.796,0-4.044C25.648,244.422,8,211.11,8,196.55c0-7.432,4.356-12.824,10.36-12.824    c1.436,0,2.924,0.308,4.424,0.92l71.64,43.92c0.912,0.56,2.016,0.732,3.064,0.468c1.044-0.26,1.936-0.932,2.48-1.86    c24.248-41.444,61.376-74.836,104.552-94.024c0.988-0.44,1.756-1.26,2.128-2.276c0.376-1.02,0.32-2.14-0.152-3.116    c-11.684-24.24-17.86-42.628-17.86-53.172c0-11.664,6.976-20.128,16.588-20.128c2.332,0,4.728,0.504,7.14,1.5l94.612,58    c0.556,0.34,1.188,0.544,1.836,0.584c86.072,5.468,162.652,61.728,195.544,143.504C470.5,342.253,391.54,398.649,302.772,401.881z    "/>
	</g>
</g>
<g>
	<g>
		<path d="M420.428,202.21c-10.956,0-19.872,8.912-19.872,19.872c0,10.956,8.916,19.872,19.872,19.872    c10.964,0,19.876-8.912,19.876-19.872C440.304,211.126,431.388,202.21,420.428,202.21z M420.428,233.954    c-6.548,0-11.872-5.328-11.872-11.872c0-6.544,5.324-11.872,11.872-11.872c6.548,0,11.876,5.328,11.876,11.872    C432.304,228.626,426.976,233.954,420.428,233.954z"/>
	</g>
</g>
<g>
	<g>
		<path d="M490.676,256.45c-12.676-28.992-31.872-55.404-55.504-76.388c-1.648-1.464-4.176-1.32-5.648,0.336    c-1.464,1.652-1.316,4.18,0.336,5.648c22.34,19.828,40.56,44.7,52.776,72.008c-32.36,72.476-103.06,121.024-180.588,123.844    c-4.12,0.152-8.16,1.368-11.672,3.524l-81.492,49.964c0.744-4.884,3.596-16.38,14.356-39.12c2.732-5.78,3.036-12.536,0.832-18.54    c-2.204-6-6.808-10.956-12.636-13.592c-39.4-17.816-71.972-47.316-94.2-85.304c-3.24-5.532-8.66-9.6-14.88-11.16    c-6.208-1.568-12.94-0.524-18.384,2.816L34.04,301.102c4.128-9.628,9.832-20.944,15.664-30.916c4.34-7.4,4.384-16.624-0.02-24.304    c-5.752-9.816-11.52-21.256-15.668-30.892l49.956,30.628c5.452,3.34,12.136,4.376,18.384,2.816    c6.216-1.56,11.636-5.624,14.88-11.16c22.152-37.856,56.032-68.348,95.408-85.848c5.896-2.624,10.556-7.604,12.78-13.664    s1.888-12.872-0.916-18.684c-11.816-24.516-14.86-36.712-15.624-41.792l87.648,53.736c3.32,2.036,7.132,3.252,11.024,3.5    c30.516,1.936,60.892,11.176,87.84,26.704c1.916,1.1,4.364,0.468,5.46-1.444c1.108-1.912,0.448-4.308-1.468-5.412    c-28.012-16.136-59.588-25.624-91.324-27.64c-2.596-0.164-5.136-0.76-7.352-2.12l-93.076-56.644    c-0.348-0.216-0.72,0.368-1.1,0.368c-0.004,0-0.004,0-0.008,0h-0.004c-0.004,0-0.008,0-0.008,0c-0.628,0-1.272,0-1.888,0    c-0.004,0-0.008,0-0.012,0c0.016,0-0.012,0-0.016,0c0.012,0.004-0.008,0-0.012,0c-0.008,0-0.008,0-0.016,0s-0.012,0-0.012,0    c-0.004,0-0.008,0-0.016,0c-0.536,0-1.044-0.452-1.48-0.1v-0.832c-0.02,0-0.012,0.004-0.012,0.008    c-0.004,0.004,0,0.008-0.016,0.008c-0.328,0.268-0.62,0.588-0.864,0.964c-0.576,0.9-1.532,2.888-1.532,6.2    c0,4.024,1.624,16.756,16.672,47.964c1.864,3.876,2.088,8.416,0.608,12.46c-1.484,4.036-4.592,7.356-8.524,9.108    c-40.892,18.172-76.076,49.824-99.064,89.116c-2.164,3.688-5.78,6.404-9.916,7.44c-4.16,1.036-8.624,0.352-12.26-1.876    L28.08,201.962c-1.432-0.88-3.256-0.768-4.58,0.276c-1.316,1.048-1.84,2.804-1.304,4.4c3.716,11.14,12.18,28.944,20.684,43.452    c2.84,4.964,2.816,11.112-0.08,16.048c-8.5,14.528-16.768,31.928-20.564,43.292c-0.536,1.596-0.012,3.352,1.304,4.4    c1.316,1.048,3.148,1.156,4.58,0.28l60.036-36.804c3.632-2.228,8.104-2.92,12.256-1.88c4.144,1.04,7.76,3.752,9.916,7.44    c23.072,39.428,56.896,70.048,97.812,88.548c3.884,1.76,6.956,5.06,8.424,9.064c1.468,4.004,1.264,8.508-0.56,12.36    c-13.876,29.324-15.372,41.408-15.372,45.244c0,3.344,0.976,5.336,1.556,6.228c0.768,1.176,2.048,1.816,3.356,1.816    c0.712,0,1.432-0.192,2.088-0.588l86.924-53.296c2.344-1.436,5.032-2.248,7.78-2.348c81.156-2.956,155.088-54.076,188.34-130.24    C491.124,258.633,491.124,257.469,490.676,256.45z"/>
	</g>
</g>
<g>
	<g>
		<path d="M403.536,375.992c-39.38-27.304-62.892-72.156-62.892-119.968c0-46.26,22.308-90.256,59.68-117.688    c1.78-1.308,2.164-3.812,0.856-5.592c-1.304-1.78-3.804-2.168-5.588-0.856c-39.412,28.936-62.944,75.344-62.944,124.14    c0,50.436,24.796,97.74,66.328,126.544c0.692,0.48,1.492,0.712,2.276,0.712c1.268,0,2.516-0.6,3.288-1.724    C405.8,379.745,405.348,377.253,403.536,375.992z"/>
	</g>
</g>
<g>
</g>
<g>
</g>
<g>
</g>
<g>
</g>
<g>
</g>
<g>
</g>
<g>
</g>
<g>
</g>
<g>
</g>
<g>
</g>
<g>
</g>
<g>
</g>
<g>
</g>
<g>
</g>
<g>
</g>
</svg>
